# xmcd CD database file
#
# Track frame offsets:
#	183
#	12513
#	23918
#	47278
#	59973
#	76118
#	92660
#	113818
#	125240
#	137370
#	160955
#	178878
#	199290
#	220188
#	234073
#	249385
#
# Disc length: 3534 seconds
#
# Revision: 0
# Processed by: cddbd v1.5.2PL0 Copyright (c) Steve Scherf et al.
# Submitted via: CDex 1.70beta2
#
DISCID=d80dcc10
DTITLE=Rutishuser and Co - New Boogie Sound
DYEAR=1990
DGENRE=Blues
TTITLE0=I han e Holzwurm
TTITLE1=Jux-Boogie
TTITLE2=Jack Daniels
TTITLE3=Super-Tuba-Rag
TTITLE4=Uf und abgschtellt
TTITLE5=Giorgio Tomato
TTITLE6=Ohni dee
TTITLE7=Uschis Boogie
TTITLE8=Mys Liseli
TTITLE9=s Telefon
TTITLE10=Made in Switzerland
TTITLE11=E-Blues
TTITLE12=Niina
TTITLE13=Lona, söttsch di schone!
TTITLE14=Tannzapfe-Blues
TTITLE15=Schribmaschine
EXTD=YEAR: 1990
EXTT0=
EXTT1=
EXTT2=
EXTT3=
EXTT4=
EXTT5=
EXTT6=
EXTT7=
EXTT8=
EXTT9=
EXTT10=
EXTT11=
EXTT12=
EXTT13=
EXTT14=
EXTT15=
PLAYORDER=
